<svg width="361" height="247" viewBox="0 0 361 247" fill="none" xmlns="http://www.w3.org/2000/svg">
<path d="M37.7734 24.8203C36.7969 25.0156 36.0156 25.6992 35.4297 26.8711C34.8438 28.043 34.1602 28.1406 33.3789 27.1641C34.7461 24.2344 36.0156 22.1836 37.1875 21.0117C37.7734 19.2539 38.5547 17.8867 39.5312 16.9102C40.5078 15.9336 41.2891 14.7617 41.875 13.3945C42.2656 12.6133 42.6562 11.9297 43.0469 11.3438C43.6328 10.5625 44.1211 9.68359 44.5117 8.70703C46.0742 6.75391 46.8555 5.58203 46.8555 5.19141C46.8555 4.80078 46.9531 4.50781 47.1484 4.3125C47.9297 3.33594 48.7109 2.84766 49.4922 2.84766C50.2734 2.65234 51.4453 2.35938 53.0078 1.96875C53.9844 1.77344 55.0586 1.57812 56.2305 1.38281C57.4023 0.992187 58.5742 0.992187 59.7461 1.38281C62.2852 2.35938 63.9453 2.75 64.7266 2.55469C65.7031 2.35938 66.4844 2.26172 67.0703 2.26172C67.8516 2.26172 68.4375 2.45703 68.8281 2.84766C69.2188 3.23828 69.3164 4.01953 69.1211 5.19141C67.9492 5.97266 66.6797 6.46094 65.3125 6.65625C64.1406 6.85156 62.7734 7.24219 61.2109 7.82812C58.8672 7.4375 56.7188 7.73047 54.7656 8.70703C52.8125 9.68359 50.8594 10.6602 48.9062 11.6367C48.3203 14.3711 47.1484 16.5195 45.3906 18.082C43.6328 19.6445 41.7773 21.1094 39.8242 22.4766L37.7734 24.8203ZM142.656 196.207C143.828 197.77 144.219 199.625 143.828 201.773C143.438 203.922 143.145 206.07 142.949 208.219C142.754 211.344 142.754 214.371 142.949 217.301C142.949 218.277 142.754 219.156 142.363 219.938C142.168 220.719 142.168 221.598 142.363 222.574C142.363 223.746 142.461 225.016 142.656 226.383C143.047 227.555 142.754 228.824 141.777 230.191C139.629 231.363 137.285 231.949 134.746 231.949C132.207 231.949 129.277 232.047 125.957 232.242C124.199 232.242 122.539 232.34 120.977 232.535C119.414 232.535 117.852 232.535 116.289 232.535C115.703 232.535 115.117 232.633 114.531 232.828C113.945 233.023 113.262 233.121 112.48 233.121C109.941 233.121 107.402 233.023 104.863 232.828C102.324 232.633 99.5898 232.633 96.6602 232.828C94.707 232.828 92.8516 232.926 91.0938 233.121C89.3359 233.316 87.5781 233.316 85.8203 233.121C82.5 232.73 79.1797 232.34 75.8594 231.949C72.7344 231.363 69.6094 230.68 66.4844 229.898C63.1641 229.508 60.918 229.02 59.7461 228.434C58.5742 227.848 57.207 227.555 55.6445 227.555C54.668 227.555 53.6914 227.652 52.7148 227.848C51.7383 227.848 50.8594 228.043 50.0781 228.434C48.7109 228.824 47.5391 229.703 46.5625 231.07C45.5859 232.242 44.5117 233.023 43.3398 233.414C41.7773 233.414 40.0195 233.609 38.0664 234C36.1133 234.195 34.1602 234.293 32.207 234.293C31.2305 234.293 30.1562 234.391 28.9844 234.586C27.8125 234.781 26.7383 234.781 25.7617 234.586C24.9805 234.586 24.1016 234.586 23.125 234.586C22.1484 234.586 21.3672 234.391 20.7812 234C20.3906 233.805 19.6094 233.121 18.4375 231.949C17.4609 230.582 16.875 229.508 16.6797 228.727C16.2891 227.164 16.2891 225.504 16.6797 223.746C17.2656 221.793 17.4609 219.938 17.2656 218.18C16.875 216.422 16.3867 214.762 15.8008 213.199C15.2148 211.441 15.0195 209.488 15.2148 207.34C15.8008 204.605 15.9961 202.848 15.8008 202.066C15.8008 201.285 15.9961 200.504 16.3867 199.723C17.9492 196.012 20.9766 193.668 25.4688 192.691C26.4453 192.301 27.5195 192.203 28.6914 192.398C29.8633 192.594 30.9375 192.594 31.9141 192.398C32.6953 192.203 33.7695 192.008 35.1367 191.812C36.5039 191.617 37.9688 191.617 39.5312 191.812C40.3125 188.688 40.5078 185.66 40.1172 182.73C39.9219 179.801 40.0195 176.773 40.4102 173.648C41.3867 172.867 42.0703 171.402 42.4609 169.254C43.0469 167.105 43.0469 165.055 42.4609 163.102C42.0703 162.125 41.582 161.344 40.9961 160.758C40.4102 160.172 40.0195 159.488 39.8242 158.707C39.4336 157.34 39.4336 155.582 39.8242 153.434C40.2148 151.285 40.4102 149.332 40.4102 147.574C40.2148 145.035 40.2148 143.375 40.4102 142.594C40.6055 141.812 40.6055 140.836 40.4102 139.664C40.0195 136.539 39.9219 133.414 40.1172 130.289C40.5078 126.969 40.8984 123.648 41.2891 120.328C41.4844 119.352 41.4844 118.277 41.2891 117.105C41.0938 115.738 41.0938 114.371 41.2891 113.004C41.6797 110.074 41.7773 108.121 41.582 107.145C41.3867 105.973 41.2891 104.898 41.2891 103.922C41.4844 102.945 41.582 101.969 41.582 100.992C41.7773 99.8203 41.875 98.7461 41.875 97.7695C41.875 95.8164 41.875 94.0586 41.875 92.4961C42.0703 90.9336 41.875 89.3711 41.2891 87.8086C38.75 87.418 37.0898 87.3203 36.3086 87.5156C35.5273 87.5156 34.4531 87.418 33.0859 87.2227C31.1328 87.0273 29.082 87.2227 26.9336 87.8086C24.7852 88.3945 22.9297 88.5898 21.3672 88.3945C20 88.1992 18.4375 87.7109 16.6797 86.9297C14.9219 86.1484 13.8477 85.2695 13.457 84.293C13.2617 83.9023 13.1641 83.3164 13.1641 82.5352C13.3594 81.7539 13.457 80.9727 13.457 80.1914C13.457 78.6289 13.457 76.8711 13.457 74.918C13.6523 72.9648 13.9453 71.3047 14.3359 69.9375C14.7266 68.9609 15.2148 68.2773 15.8008 67.8867C16.3867 67.4961 16.7773 66.8125 16.9727 65.8359C18.3398 64.6641 19.5117 63.2969 20.4883 61.7344C21.6602 60.1719 22.7344 58.6094 23.7109 57.0469C24.6875 55.875 25.6641 54.8008 26.6406 53.8242C27.8125 52.8477 28.8867 51.6758 29.8633 50.3086C30.6445 49.332 31.3281 48.4531 31.9141 47.6719C32.5 46.6953 33.2812 45.9141 34.2578 45.3281C34.2578 44.3516 34.4531 43.668 34.8438 43.2773C35.4297 42.6914 36.1133 42.3008 36.8945 42.1055C37.8711 41.7148 38.75 41.4219 39.5312 41.2266C40.3125 40.8359 40.9961 40.3477 41.582 39.7617C43.1445 37.2227 44.1211 35.5625 44.5117 34.7812C45.0977 34 45.3906 33.0234 45.3906 31.8516C47.9297 29.3125 49.7852 26.3828 50.957 23.0625C51.9336 22.4766 52.8125 21.8906 53.5938 21.3047C54.5703 20.5234 55.3516 19.6445 55.9375 18.668C56.9141 18.2773 57.8906 17.7891 58.8672 17.2031C59.8438 16.4219 60.918 15.9336 62.0898 15.7383C64.4336 15.9336 65.7031 16.0312 65.8984 16.0312C66.0938 15.8359 66.3867 15.7383 66.7773 15.7383C72.2461 16.3242 76.7383 16.5195 80.2539 16.3242C83.7695 15.9336 87.0898 15.6406 90.2148 15.4453C90.8008 15.8359 91.2891 16.2266 91.6797 16.6172C92.0703 17.0078 92.5586 17.3008 93.1445 17.4961C94.5117 18.082 96.0742 18.2773 97.832 18.082C99.5898 17.8867 101.348 17.5938 103.105 17.2031C104.863 16.8125 106.621 16.4219 108.379 16.0312C110.137 15.6406 111.797 15.543 113.359 15.7383C115.898 16.1289 117.949 16.8125 119.512 17.7891C119.512 19.5469 119.805 21.3047 120.391 23.0625C120.977 24.8203 121.367 26.7734 121.562 28.9219C121.758 30.4844 121.758 32.0469 121.562 33.6094C121.367 34.9766 121.27 36.4414 121.27 38.0039C121.27 40.1523 121.172 42.2031 120.977 44.1562C120.977 45.9141 120.977 47.7695 120.977 49.7227C120.977 51.0898 120.977 52.5547 120.977 54.1172C120.977 55.4844 120.879 56.6562 120.684 57.6328C118.926 59.9766 117.656 62.3203 116.875 64.6641C116.094 66.8125 115.605 68.5703 115.41 69.9375C115.41 70.9141 115.508 72.3789 115.703 74.332C115.898 76.2852 116.094 77.75 116.289 78.7266C116.68 79.5078 117.07 80.1914 117.461 80.7773C118.047 81.168 118.34 81.6562 118.34 82.2422C118.73 83.6094 119.121 85.0742 119.512 86.6367C119.902 88.0039 120.195 89.4688 120.391 91.0312C120.781 92.7891 120.781 94.6445 120.391 96.5977C120.195 98.3555 120 100.309 119.805 102.457C119.805 104.41 119.902 106.363 120.098 108.316C120.293 110.074 120.391 111.832 120.391 113.59C120.586 115.738 120.684 117.887 120.684 120.035C120.684 122.184 120.781 124.332 120.977 126.48C121.367 130.973 121.66 135.27 121.855 139.371C122.051 143.473 121.855 147.672 121.27 151.969C121.27 152.945 121.27 153.922 121.27 154.898C121.27 155.875 121.172 156.754 120.977 157.535C120.781 157.926 120.488 158.414 120.098 159C119.902 159.391 119.707 159.879 119.512 160.465C118.73 163.199 118.73 165.641 119.512 167.789C120.488 169.742 121.074 172.184 121.27 175.113C121.465 177.262 121.465 179.508 121.27 181.852C121.074 184 121.27 185.855 121.855 187.418C122.246 188.004 122.734 188.688 123.32 189.469C123.906 190.25 124.395 190.738 124.785 190.934C125.176 190.934 125.762 190.836 126.543 190.641C127.52 190.25 128.301 190.055 128.887 190.055C129.863 190.055 130.84 190.055 131.816 190.055C132.793 190.055 133.672 190.25 134.453 190.641C135.82 191.031 137.285 191.812 138.848 192.984C140.605 194.156 141.875 195.23 142.656 196.207ZM53.8867 207.633C54.668 207.047 55.3516 206.168 55.9375 204.996C56.5234 203.629 56.9141 202.164 57.1094 200.602C57.3047 199.039 57.3047 197.574 57.1094 196.207C56.9141 194.645 56.4258 193.473 55.6445 192.691C53.6914 193.082 52.6172 194.352 52.4219 196.5C52.2266 198.453 51.9336 200.309 51.543 202.066C50.957 203.043 50.1758 203.629 49.1992 203.824C48.418 204.02 47.4414 204.117 46.2695 204.117C45.293 204.117 44.3164 204.215 43.3398 204.41C42.3633 204.41 41.582 204.703 40.9961 205.289C39.8242 206.852 39.7266 207.73 40.7031 207.926C41.6797 208.121 42.6562 208.414 43.6328 208.805C46.7578 209.586 48.8086 209.684 49.7852 209.098C50.957 208.316 52.3242 207.828 53.8867 207.633ZM57.6953 179.215C58.0859 178.629 58.4766 177.848 58.8672 176.871C59.2578 175.699 59.4531 174.625 59.4531 173.648C59.6484 172.477 59.5508 171.5 59.1602 170.719C58.9648 169.742 58.4766 169.254 57.6953 169.254C54.9609 170.621 53.3984 171.988 53.0078 173.355C52.8125 174.723 52.5195 175.895 52.1289 176.871C52.9102 177.457 53.7891 178.043 54.7656 178.629C55.7422 179.02 56.7188 179.215 57.6953 179.215ZM77.3242 33.0234C78.4961 31.8516 78.4961 30.582 77.3242 29.2148C76.1523 27.8477 74.7852 27.0664 73.2227 26.8711C71.4648 27.457 70.0977 27.75 69.1211 27.75C68.3398 27.5547 67.5586 27.2617 66.7773 26.8711C64.6289 28.043 62.9688 29.3125 61.7969 30.6797C60.625 32.0469 59.4531 33.707 58.2812 35.6602C57.8906 36.6367 57.3047 37.6133 56.5234 38.5898C55.7422 39.5664 55.3516 40.4453 55.3516 41.2266C55.5469 42.2031 56.1328 42.9844 57.1094 43.5703C58.0859 44.1562 59.1602 44.2539 60.332 43.8633C61.3086 42.8867 62.0898 41.6172 62.6758 40.0547C63.2617 38.4922 64.3359 37.418 65.8984 36.832C66.6797 37.2227 67.4609 37.0273 68.2422 36.2461C69.2188 35.4648 70.3906 34.8789 71.7578 34.4883C72.9297 34.0977 73.9062 33.9023 74.6875 33.9023C75.6641 33.9023 76.543 33.6094 77.3242 33.0234ZM95.7812 32.7305C96.5625 31.3633 96.3672 30.2891 95.1953 29.5078C92.4609 28.5312 90.8008 28.5312 90.2148 29.5078C89.6289 30.4844 89.2383 31.4609 89.043 32.4375C89.6289 33.4141 90.6055 33.8047 91.9727 33.6094C93.5352 33.4141 94.8047 33.1211 95.7812 32.7305ZM130.645 213.199C130.84 212.223 130.84 211.539 130.645 211.148C130.449 210.562 130.254 209.879 130.059 209.098C129.082 208.512 127.91 208.219 126.543 208.219C125.176 208.023 124.102 208.414 123.32 209.391C122.93 210.172 122.734 210.953 122.734 211.734C122.734 212.516 122.539 213.102 122.148 213.492C120.977 214.469 119.219 215.055 116.875 215.25C114.727 215.25 112.578 215.348 110.43 215.543C108.281 215.738 106.426 216.227 104.863 217.008C103.496 217.789 102.812 219.352 102.812 221.695C105.352 221.5 108.379 221.402 111.895 221.402C115.41 221.207 118.633 221.012 121.562 220.816C122.93 220.816 124.395 220.621 125.957 220.23C126.934 219.84 127.91 218.863 128.887 217.301C129.863 215.543 130.449 214.176 130.645 213.199ZM4.66797 75.5039C4.08203 75.3086 3.69141 74.918 3.49609 74.332C3.30078 73.7461 3.10547 73.1602 2.91016 72.5742C3.30078 71.793 3.69141 71.1094 4.08203 70.5234C4.47266 69.7422 4.86328 68.9609 5.25391 68.1797C6.81641 68.1797 7.89062 68.9609 8.47656 70.5234C9.25781 71.8906 9.16016 73.2578 8.18359 74.625C7.59766 75.0156 7.01172 75.2109 6.42578 75.2109C5.83984 75.0156 5.25391 75.1133 4.66797 75.5039ZM17.2656 100.992C15.7031 99.4297 14.6289 98.7461 14.043 98.9414C13.457 99.1367 12.8711 99.1367 12.2852 98.9414C9.74609 97.9648 7.89062 97.4766 6.71875 97.4766C5.74219 97.4766 4.96094 97.1836 4.375 96.5977C3.59375 96.207 2.71484 94.8398 1.73828 92.4961C0.957031 89.957 0.664062 88.1992 0.859375 87.2227C0.859375 86.4414 1.34766 84.8789 2.32422 82.5352C3.49609 80.1914 4.375 78.9219 4.96094 78.7266C5.9375 78.5312 6.71875 79.0195 7.30469 80.1914C8.08594 81.168 8.67188 82.4375 9.0625 84C9.45312 85.3672 9.64844 86.832 9.64844 88.3945C9.84375 89.957 9.84375 91.2266 9.64844 92.2031C12.3828 93.1797 15.5078 93.9609 19.0234 94.5469C22.5391 95.1328 26.0547 95.0352 29.5703 94.2539C29.9609 94.6445 30.4492 95.1328 31.0352 95.7188C31.8164 96.1094 32.3047 96.793 32.5 97.7695C31.9141 99.918 31.6211 101.285 31.6211 101.871C31.8164 102.262 31.9141 102.75 31.9141 103.336C31.9141 104.312 31.7188 105.484 31.3281 106.852C30.9375 108.023 30.7422 109.098 30.7422 110.074C30.9375 113.395 30.4492 115.543 29.2773 116.52C28.1055 117.301 26.9336 117.594 25.7617 117.398C24.5898 114.859 23.9062 112.223 23.7109 109.488C23.7109 106.559 22.7344 104.215 20.7812 102.457C20.1953 102.066 19.6094 101.871 19.0234 101.871C18.4375 101.676 17.8516 101.383 17.2656 100.992ZM134.746 186.832C132.402 186.637 130.547 185.758 129.18 184.195C127.812 182.438 127.227 180.094 127.422 177.164C127.422 176.578 127.52 175.992 127.715 175.406C127.91 174.625 128.008 173.941 128.008 173.355C128.008 172.184 127.91 170.914 127.715 169.547C127.715 168.18 127.91 166.91 128.301 165.738C129.668 164.957 130.645 165.152 131.23 166.324C132.012 167.301 132.695 168.082 133.281 168.668C132.695 171.988 132.891 174.723 133.867 176.871C135.039 179.02 136.504 180.875 138.262 182.438C140.801 183.414 142.168 184.781 142.363 186.539C140.02 186.344 138.359 186.441 137.383 186.832C136.602 187.027 135.723 187.027 134.746 186.832ZM92.2656 239.566C89.5312 241.91 86.2109 242.984 82.3047 242.789C78.3984 242.594 74.7852 242.398 71.4648 242.203C70.6836 242.203 69.9023 242.203 69.1211 242.203C68.3398 242.398 67.6562 242.301 67.0703 241.91C65.5078 241.91 64.043 242.008 62.6758 242.203C61.5039 242.398 60.332 242.301 59.1602 241.91C58.1836 242.301 57.1094 242.594 55.9375 242.789C54.9609 242.984 53.7891 242.984 52.4219 242.789C49.8828 241.617 49.1016 240.348 50.0781 238.98C51.0547 237.613 52.5195 236.148 54.4727 234.586C55.2539 234.195 56.3281 233.902 57.6953 233.707C59.0625 233.512 60.2344 233.512 61.2109 233.707C61.9922 232.926 62.7734 232.828 63.5547 233.414C64.3359 233.805 64.9219 234.098 65.3125 234.293C66.0938 234.684 66.875 234.879 67.6562 234.879C68.6328 235.074 69.2188 235.562 69.4141 236.344C72.3438 237.125 73.8086 237.516 73.8086 237.516C75.7617 238.492 77.2266 239.078 78.2031 239.273C79.375 239.469 80.3516 239.566 81.1328 239.566C82.6953 239.566 84.5508 239.273 86.6992 238.688C88.8477 238.102 90.7031 238.395 92.2656 239.566ZM96.0742 239.566C96.6602 238.59 97.4414 238.102 98.418 238.102C99.3945 238.102 100.176 238.297 100.762 238.688C101.543 239.078 101.934 239.664 101.934 240.445C102.129 241.422 101.641 242.301 100.469 243.082C98.3203 243.082 96.8555 242.691 96.0742 241.91V239.566ZM176.348 74.918C176.543 73.3555 176.543 71.793 176.348 70.2305C176.348 68.668 176.543 67.3008 176.934 66.1289C177.129 65.543 177.422 64.957 177.812 64.3711C178.203 63.7852 178.594 63.1992 178.984 62.6133C179.375 62.2227 179.57 61.7344 179.57 61.1484C179.766 60.5625 180.059 60.0742 180.449 59.6836C182.207 57.1445 183.281 55.3867 183.672 54.4102C184.062 53.4336 184.648 52.457 185.43 51.4805C186.211 50.5039 187.188 49.625 188.359 48.8438C189.727 48.0625 191.094 47.3789 192.461 46.793C193.438 46.4023 194.316 45.8164 195.098 45.0352C195.879 44.2539 196.758 43.668 197.734 43.2773C199.492 40.9336 200.469 38.3945 200.664 35.6602C201.055 34.6836 201.641 34 202.422 33.6094C203.398 33.0234 204.375 32.3398 205.352 31.5586C206.523 30.3867 207.598 29.2148 208.574 28.043C209.551 26.6758 210.82 25.5039 212.383 24.5273C215.703 23.3555 217.852 22.3789 218.828 21.5977C219.805 20.8164 220.977 20.1328 222.344 19.5469C223.906 18.7656 225.762 18.1797 227.91 17.7891C230.254 17.2031 232.402 16.6172 234.355 16.0312C236.113 15.4453 237.969 14.8594 239.922 14.2734C241.875 13.6875 243.828 13.3945 245.781 13.3945C247.148 13.3945 248.418 13.2969 249.59 13.1016C250.762 12.9063 252.129 12.9063 253.691 13.1016C254.277 13.1016 254.766 13.1992 255.156 13.3945C255.742 13.3945 256.328 13.4922 256.914 13.6875C260.234 13.2969 262.676 13.1992 264.238 13.3945C265.801 13.3945 267.168 13.4922 268.34 13.6875C269.512 13.8828 270.977 14.0781 272.734 14.2734C274.688 14.4687 276.445 14.5664 278.008 14.5664C279.18 15.3477 280.254 15.9336 281.23 16.3242C282.402 16.7148 283.867 16.9102 285.625 16.9102C289.531 19.2539 293.828 21.1094 298.516 22.4766C303.398 23.8437 307.598 25.6992 311.113 28.043C313.066 29.8008 314.434 30.875 315.215 31.2656C315.996 31.4609 316.777 31.7539 317.559 32.1445C318.145 32.5352 319.023 33.2187 320.195 34.1953C321.562 35.1719 322.539 36.0508 323.125 36.832C323.516 37.2227 323.906 37.7109 324.297 38.2969C324.688 38.8828 324.98 39.3711 325.176 39.7617C325.371 40.3477 325.371 40.9336 325.176 41.5195C325.176 42.1055 325.176 42.5937 325.176 42.9844C325.762 45.9141 325.957 47.7695 325.762 48.5508C325.566 49.332 325.664 50.1133 326.055 50.8945C326.25 51.6758 326.641 52.2617 327.227 52.6523C328.008 52.8477 328.789 53.1406 329.57 53.5312C330.547 53.7266 331.426 53.9219 332.207 54.1172C332.988 54.3125 333.574 54.7031 333.965 55.2891C334.551 56.6562 335.234 57.8281 336.016 58.8047C336.797 59.5859 337.676 60.5625 338.652 61.7344C340.215 65.4453 340.312 68.375 338.945 70.5234C337.773 72.4766 337.188 74.4297 337.188 76.3828C337.188 77.9453 337.48 79.6055 338.066 81.3633C338.652 83.1211 339.629 84.1953 340.996 84.5859C341.191 85.9531 341.68 87.0273 342.461 87.8086C343.242 88.5898 344.121 89.3711 345.098 90.1523C346.074 90.7383 347.051 91.3242 348.027 91.9102C349.004 92.4961 349.883 93.1797 350.664 93.9609C352.422 101.578 352.812 109.391 351.836 117.398C350.859 125.406 349.785 132.535 348.613 138.785C346.66 142.691 345 146.988 343.633 151.676C342.461 156.168 340.508 160.074 337.773 163.395C337.383 165.543 336.699 167.496 335.723 169.254C334.746 170.816 333.867 172.477 333.086 174.234C332.695 175.211 332.012 176.676 331.035 178.629C330.254 179.996 329.473 181.266 328.691 182.438C327.91 183.609 326.934 184.684 325.762 185.66C322.441 187.809 319.609 190.445 317.266 193.57C315.117 196.5 312.871 199.43 310.527 202.359C309.16 203.141 307.793 204.02 306.426 204.996C305.254 205.777 303.789 206.266 302.031 206.461C301.641 207.242 301.055 207.828 300.273 208.219C299.492 208.609 298.906 209.293 298.516 210.27C298.125 211.246 297.93 212.223 297.93 213.199C297.93 213.98 297.734 214.859 297.344 215.836C297.148 216.422 296.855 217.008 296.465 217.594C296.074 217.984 295.684 218.473 295.293 219.059C294.902 219.645 294.609 220.23 294.414 220.816C294.414 221.402 294.219 221.891 293.828 222.281C293.242 223.062 292.266 223.844 290.898 224.625C289.531 225.211 288.262 225.797 287.09 226.383C285.918 226.969 284.746 227.652 283.574 228.434C282.402 229.215 281.328 229.898 280.352 230.484C279.57 230.875 278.691 231.168 277.715 231.363C276.934 231.559 276.152 231.852 275.371 232.242C274.59 232.633 273.711 233.219 272.734 234C271.758 234.586 270.781 235.074 269.805 235.465C268.828 235.855 267.754 236.246 266.582 236.637C265.605 237.027 264.531 237.418 263.359 237.809C262.773 238.199 261.699 238.59 260.137 238.98C259.16 239.371 258.281 239.566 257.5 239.566C256.719 239.762 255.84 240.055 254.863 240.445C254.277 240.641 253.691 240.836 253.105 241.031C252.715 241.422 252.129 241.715 251.348 241.91C249.785 242.301 248.223 242.594 246.66 242.789C245.098 242.984 243.438 243.277 241.68 243.668C239.922 244.059 238.164 244.449 236.406 244.84C234.648 245.23 232.988 245.523 231.426 245.719C229.082 246.109 226.641 246.012 224.102 245.426C221.562 244.84 219.219 244.449 217.07 244.254C215.898 243.473 214.727 242.691 213.555 241.91C212.578 241.129 211.504 240.348 210.332 239.566C209.941 238.199 209.551 236.734 209.16 235.172C208.77 233.805 208.379 232.34 207.988 230.777C207.598 229.215 207.109 227.652 206.523 226.09C206.133 224.332 206.035 222.672 206.23 221.109C206.816 218.766 206.914 217.008 206.523 215.836C206.328 214.664 206.328 213.492 206.523 212.32C207.305 210.953 207.598 209.977 207.402 209.391C207.402 208.609 207.598 208.023 207.988 207.633C209.355 207.633 210.625 207.242 211.797 206.461C212.969 205.484 214.238 204.801 215.605 204.41C216.582 204.02 217.754 203.824 219.121 203.824C220.684 203.824 222.246 203.629 223.809 203.238C225.957 202.652 228.008 202.262 229.961 202.066C232.109 201.676 233.867 201.188 235.234 200.602C237.773 199.039 239.727 198.16 241.094 197.965C242.461 197.574 243.633 197.574 244.609 197.965C245 198.16 245.391 198.551 245.781 199.137C246.367 199.527 246.953 199.82 247.539 200.016C248.516 200.211 249.785 199.918 251.348 199.137C252.91 198.355 254.082 197.477 254.863 196.5C255.449 195.523 255.84 194.547 256.035 193.57C256.23 192.594 256.426 191.617 256.621 190.641C257.598 189.664 258.574 188.688 259.551 187.711C260.527 186.734 261.602 185.953 262.773 185.367C264.727 183.219 266.68 181.168 268.633 179.215C270.781 177.262 272.93 175.309 275.078 173.355C277.031 171.598 278.594 169.645 279.766 167.496C281.133 165.348 282.402 163.102 283.574 160.758C284.941 158.414 286.309 155.973 287.676 153.434C289.043 150.699 290.02 147.672 290.605 144.352C289.043 145.328 287.773 146.598 286.797 148.16C285.82 149.723 284.551 151.09 282.988 152.262C282.402 152.848 281.719 153.336 280.938 153.727C280.352 154.117 279.668 154.508 278.887 154.898C277.129 155.875 275.273 157.047 273.32 158.414C271.562 159.781 269.609 160.758 267.461 161.344C266.484 162.32 265.312 163.199 263.945 163.98C262.773 164.566 261.504 165.152 260.137 165.738C257.598 166.129 255.059 166.715 252.52 167.496C250.176 168.082 247.832 168.57 245.488 168.961L242.266 169.547C240.117 169.938 238.164 170.035 236.406 169.84C234.844 169.449 232.988 169.059 230.84 168.668C229.277 168.277 227.812 168.082 226.445 168.082C225.273 168.082 224.199 167.691 223.223 166.91C221.855 166.91 220.391 166.812 218.828 166.617C217.461 166.227 216.387 165.543 215.605 164.566C208.574 162.418 202.715 159 198.027 154.312C193.535 149.43 189.141 144.352 184.844 139.078C183.672 137.125 182.695 135.172 181.914 133.219C181.328 131.266 180.352 129.02 178.984 126.48C178.398 125.504 177.715 124.527 176.934 123.551C176.152 122.379 175.566 121.207 175.176 120.035C174.785 118.863 174.59 117.594 174.59 116.227C174.59 114.664 174.492 113.102 174.297 111.539C173.32 108.805 172.93 106.949 173.125 105.973C173.32 104.996 173.418 104.02 173.418 103.043C173.223 99.7227 173.223 97.3789 173.418 96.0117C173.809 94.6445 174.102 93.2773 174.297 91.9102C174.297 90.9336 174.199 89.957 174.004 88.9805C174.004 88.0039 174.102 87.125 174.297 86.3438C174.297 85.7578 174.395 85.1719 174.59 84.5859C174.98 84 175.176 83.4141 175.176 82.8281C175.371 80.0938 175.566 78.3359 175.762 77.5547C176.152 76.7734 176.348 75.8945 176.348 74.918ZM217.949 221.109C220.098 222.086 221.953 221.793 223.516 220.23C225.078 218.668 226.25 216.91 227.031 214.957C226.641 214.176 225.664 213.59 224.102 213.199C222.148 213.59 220.391 214.371 218.828 215.543C217.266 216.52 216.973 218.375 217.949 221.109ZM335.137 113.59C334.941 116.715 335.332 118.863 336.309 120.035C337.285 121.012 338.262 121.305 339.238 120.914C340.215 117.984 340.898 115.055 341.289 112.125C341.875 109 341.68 105.582 340.703 101.871C338.945 100.309 337.871 99.5273 337.48 99.5273C337.285 99.5273 336.992 99.4297 336.602 99.2344C335.82 99.8203 335.332 100.699 335.137 101.871C334.941 102.848 334.844 104.02 334.844 105.387C334.844 106.754 334.844 108.219 334.844 109.781C335.039 111.148 335.137 112.418 335.137 113.59ZM325.762 88.1016C324.98 89.2734 324.883 90.543 325.469 91.9102C326.25 93.082 327.129 93.8633 328.105 94.2539C328.496 93.082 328.887 92.3984 329.277 92.2031C329.668 92.0078 330.059 91.8125 330.449 91.6172C331.426 89.8594 331.035 88.4922 329.277 87.5156C327.715 86.5391 326.543 86.7344 325.762 88.1016ZM238.75 86.0508C237.188 86.832 235.723 88.3945 234.355 90.7383C232.988 92.8867 232.5 95.0352 232.891 97.1836C233.281 98.1602 233.77 98.9414 234.355 99.5273C235.137 100.113 235.723 100.699 236.113 101.285C236.504 102.262 236.602 103.141 236.406 103.922C236.406 104.703 236.504 105.582 236.699 106.559C237.09 107.535 237.48 108.609 237.871 109.781C238.262 110.758 238.652 111.832 239.043 113.004C239.629 114.957 240.117 116.617 240.508 117.984C241.094 119.156 241.777 120.426 242.559 121.793C244.121 124.332 245.977 126.48 248.125 128.238C250.469 129.996 253.594 130.777 257.5 130.582C260.82 130.387 263.652 129.703 265.996 128.531C268.34 127.164 270.684 125.504 273.027 123.551C273.223 122.574 273.613 121.695 274.199 120.914C274.98 120.133 275.664 119.254 276.25 118.277C276.641 117.496 276.934 116.52 277.129 115.348C277.52 114.176 277.812 113.102 278.008 112.125C278.398 110.562 278.887 109.098 279.473 107.73C280.059 106.363 280.449 104.996 280.645 103.629C280.84 102.652 280.938 101.676 280.938 100.699C281.133 99.5273 281.23 98.4531 281.23 97.4766C281.23 96.5 281.23 95.5234 281.23 94.5469C281.426 93.5703 281.426 92.5938 281.23 91.6172C280.84 85.9531 280.059 81.0703 278.887 76.9688C277.324 73.2578 275.859 71.1094 274.492 70.5234C273.32 69.7422 271.855 68.9609 270.098 68.1797C269.121 67.7891 267.852 67.3984 266.289 67.0078C264.922 66.6172 263.652 66.2266 262.48 65.8359C260.137 65.25 257.793 65.1523 255.449 65.543C253.301 65.9336 251.25 66.5195 249.297 67.3008C247.93 69.2539 246.367 70.9141 244.609 72.2812C243.047 73.6484 241.875 75.6016 241.094 78.1406C240.703 79.7031 240.41 81.168 240.215 82.5352C240.215 83.9023 239.727 85.0742 238.75 86.0508ZM229.375 71.6953C227.227 71.5 225.566 71.8906 224.395 72.8672C223.418 73.6484 222.637 74.8203 222.051 76.3828C221.66 77.75 221.465 79.4102 221.465 81.3633C221.66 83.1211 221.758 84.8789 221.758 86.6367C223.516 86.2461 224.59 85.7578 224.98 85.1719C225.566 84.3906 226.152 83.5117 226.738 82.5352C227.91 80.9727 229.082 79.2148 230.254 77.2617C231.426 75.3086 231.133 73.4531 229.375 71.6953ZM228.203 195.328C224.883 197.477 221.074 198.844 216.777 199.43C212.676 200.016 208.965 201.285 205.645 203.238C204.668 203.043 203.887 203.141 203.301 203.531C202.715 203.922 201.934 204.215 200.957 204.41C199.59 207.34 198.711 209.684 198.32 211.441C198.125 213.004 197.93 214.859 197.734 217.008C195.391 216.227 194.219 215.445 194.219 214.664C194.414 213.688 194.414 212.711 194.219 211.734C194.023 209.977 193.828 208.219 193.633 206.461C193.633 204.703 194.121 203.043 195.098 201.48C195.488 200.895 196.367 200.113 197.734 199.137C199.102 197.965 200.273 197.281 201.25 197.086C201.641 197.086 202.129 197.086 202.715 197.086C203.496 197.086 204.082 196.988 204.473 196.793C205.059 196.598 205.547 196.402 205.938 196.207C206.523 196.012 207.109 195.816 207.695 195.621C208.477 195.426 209.551 195.328 210.918 195.328C212.09 194.938 213.164 194.645 214.141 194.449C215.312 194.254 216.387 194.059 217.363 193.863C218.535 193.668 219.707 193.57 220.879 193.57C222.051 193.57 223.027 193.277 223.809 192.691C224.199 192.301 224.492 191.812 224.688 191.227C225.078 190.445 225.469 189.957 225.859 189.762C227.422 189.371 228.691 189.957 229.668 191.52C230.645 193.082 230.645 194.352 229.668 195.328H228.203ZM234.941 186.832C236.309 187.418 236.699 188.59 236.113 190.348C235.527 192.105 234.453 192.789 232.891 192.398C231.719 191.422 231.523 190.348 232.305 189.176C233.086 187.809 233.965 187.027 234.941 186.832ZM248.711 119.156C247.93 118.18 247.051 116.91 246.074 115.348C245.098 113.59 244.805 111.93 245.195 110.367C244.609 109.781 244.219 109 244.023 108.023C243.828 107.047 243.828 106.168 244.023 105.387C244.219 104.41 244.609 103.727 245.195 103.336C245.977 102.75 246.953 102.652 248.125 103.043C248.32 105.387 248.027 106.754 247.246 107.145C246.66 107.34 246.562 107.828 246.953 108.609C247.344 108.414 248.027 108.219 249.004 108.023C249.98 107.633 250.762 107.633 251.348 108.023C252.129 111.344 253.301 114.078 254.863 116.227C256.621 118.375 259.062 118.961 262.188 117.984C264.531 116.227 265.801 114.859 265.996 113.883C266.387 112.906 267.266 112.32 268.633 112.125C269.609 113.297 269.707 114.469 268.926 115.641C268.145 116.617 267.852 117.691 268.047 118.863C265.898 121.402 262.871 122.867 258.965 123.258C255.059 123.648 252.031 122.379 249.883 119.449L248.711 119.156ZM339.238 53.8242C338.262 53.6289 337.09 53.1406 335.723 52.3594C334.551 51.5781 333.867 50.6992 333.672 49.7227C333.672 48.9414 333.867 48.2578 334.258 47.6719C334.844 46.8906 335.332 46.1094 335.723 45.3281C337.09 44.9375 338.164 45.0352 338.945 45.6211C339.727 46.207 340.605 46.9883 341.582 47.9648C342.559 48.9414 343.438 50.1133 344.219 51.4805C345 52.8477 345.879 54.3125 346.855 55.875C349.98 60.3672 352.227 65.9336 353.594 72.5742C354.766 73.1602 355.352 74.0391 355.352 75.2109C355.352 76.3828 355.449 77.8477 355.645 79.6055C355.84 81.168 356.23 82.7305 356.816 84.293C357.598 85.6602 358.281 86.832 358.867 87.8086C359.258 88.3945 359.551 88.8828 359.746 89.2734C360.137 89.6641 360.332 90.1523 360.332 90.7383C360.527 91.5195 360.43 92.4961 360.039 93.668C359.844 94.6445 359.16 94.9375 357.988 94.5469C357.598 94.3516 357.109 93.668 356.523 92.4961C356.133 91.3242 355.742 90.4453 355.352 89.8594C354.57 88.8828 353.691 88.1992 352.715 87.8086C351.738 87.418 350.762 86.832 349.785 86.0508C348.613 85.4648 347.734 84.5859 347.148 83.4141C346.562 82.2422 345.879 81.168 345.098 80.1914C344.707 78.8242 344.609 77.6523 344.805 76.6758C345 75.5039 345.293 74.5273 345.684 73.7461C346.074 72.3789 346.172 71.0117 345.977 69.6445C345.781 68.2773 345.977 67.1055 346.562 66.1289C345.391 63.9805 344.219 61.9297 343.047 59.9766C342.07 57.8281 340.801 55.7773 339.238 53.8242ZM175.762 49.1367C177.129 49.7227 177.812 50.5039 177.812 51.4805C177.812 52.457 177.52 53.4336 176.934 54.4102C176.348 55.3867 175.469 56.168 174.297 56.7539C173.125 57.3398 172.051 57.3398 171.074 56.7539C170.488 54.9961 170.684 53.4336 171.66 52.0664C172.832 50.6992 174.199 49.7227 175.762 49.1367ZM186.602 41.2266C186.016 41.8125 185.234 42.6914 184.258 43.8633C183.281 44.8398 182.109 44.9375 180.742 44.1562C180.352 40.8359 181.133 38.2969 183.086 36.5391C185.039 34.5859 186.992 32.6328 188.945 30.6797C190.312 28.7266 191.289 27.5547 191.875 27.1641C192.656 26.7734 193.34 26.2852 193.926 25.6992C196.074 23.7461 197.734 22.3789 198.906 21.5977C200.273 20.6211 201.738 19.8398 203.301 19.2539C204.082 17.8867 205.742 16.5195 208.281 15.1523C210.82 13.7852 213.262 12.9063 215.605 12.5156C217.559 12.125 218.633 12.5156 218.828 13.6875C219.023 14.8594 218.633 16.1289 217.656 17.4961C216.68 17.4961 215.898 17.7891 215.312 18.375C214.922 18.9609 214.141 19.2539 212.969 19.2539C209.453 21.207 206.035 23.3555 202.715 25.6992C201.152 27.2617 199.688 28.8242 198.32 30.3867C197.148 31.7539 195.781 33.0234 194.219 34.1953C193.633 35.1719 192.656 36.1484 191.289 37.125C190.312 37.9062 189.531 38.5898 188.945 39.1758C188.359 39.7617 187.578 40.4453 186.602 41.2266Z" fill="url(#paint0_linear_1_2)"/>
<defs>
<linearGradient id="paint0_linear_1_2" x1="199.5" y1="-81" x2="199.5" y2="225" gradientUnits="userSpaceOnUse">
<stop offset="0.226481" stop-color="#7000FF"/>
<stop offset="0.797909" stop-color="#00A3FF"/>
</linearGradient>
</defs>
</svg>
