<svg width="430" height="254" viewBox="0 0 430 254" fill="none" xmlns="http://www.w3.org/2000/svg">
<path d="M35.3398 24.375C38.2695 20.8594 41.6875 17.9297 45.5938 15.5859C49.5 13.2422 53.6016 11.2891 57.8984 9.72656C59.8516 8.94531 61.0234 8.26172 61.4141 7.67578C62 6.89453 62.4883 6.30859 62.8789 5.91797C65.0273 5.52734 67.0781 4.84375 69.0312 3.86719C71.1797 2.89062 73.2305 2.59766 75.1836 2.98828C77.1367 2.59766 78.4062 2.30469 78.9922 2.10938C79.7734 1.71875 80.5547 1.42578 81.3359 1.23047C82.8984 1.03516 84.4609 1.13281 86.0234 1.52344C87.5859 1.91406 89.1484 2.01172 90.7109 1.81641C92.8594 1.42578 94.5195 1.32813 95.6914 1.52344C97.0586 1.71875 98.3281 1.81641 99.5 1.81641C101.453 1.62109 103.406 1.71875 105.359 2.10938C107.312 2.5 108.191 3.96484 107.996 6.50391C107.41 7.48047 106.141 7.96875 104.188 7.96875C102.43 7.77344 100.77 7.48047 99.207 7.08984C98.0352 6.89453 96.9609 6.60156 95.9844 6.21094C95.0078 5.82031 94.0312 5.625 93.0547 5.625C90.9062 5.42969 88.7578 5.625 86.6094 6.21094C84.6562 6.60156 82.6055 6.89453 80.457 7.08984C78.8945 7.48047 77.332 7.67578 75.7695 7.67578C74.207 7.48047 72.7422 7.57812 71.375 7.96875C69.2266 9.33594 67.1758 10.6055 65.2227 11.7773C63.4648 12.7539 61.9023 14.1211 60.5352 15.8789C57.9961 17.2461 56.2383 18.5156 55.2617 19.6875C54.4805 20.6641 53.6016 21.6406 52.625 22.6172C51.2578 22.8125 50.0859 23.3008 49.1094 24.082C48.1328 24.668 46.8633 24.9609 45.3008 24.9609C44.7148 24.9609 43.9336 24.7656 42.957 24.375C42.1758 23.9844 41.2969 23.6914 40.3203 23.4961C38.1719 23.4961 36.9023 23.6914 36.5117 24.082C36.1211 24.2773 35.7305 24.375 35.3398 24.375ZM182.117 239.414C180.555 240.586 179.09 241.562 177.723 242.344C176.551 243.32 174.695 243.809 172.156 243.809C169.031 243.223 166.883 243.027 165.711 243.223C164.539 243.418 163.465 243.418 162.488 243.223C158.387 242.441 154.969 242.051 152.234 242.051C149.5 242.051 146.961 242.148 144.617 242.344C142.859 242.539 141.004 242.539 139.051 242.344C137.098 242.148 135.242 242.148 133.484 242.344C132.898 241.562 132.117 241.074 131.141 240.879C130.359 240.684 129.48 240.391 128.504 240C126.746 239.414 124.891 238.535 122.938 237.363C121.18 236.191 119.422 235.508 117.664 235.312C116.492 235.117 115.125 235.02 113.562 235.02C112.195 235.02 110.73 235.117 109.168 235.312C107.605 235.312 106.141 235.508 104.773 235.898C103.406 236.289 102.332 236.777 101.551 237.363C100.965 237.754 100.477 238.34 100.086 239.121C99.8906 239.707 99.207 240.195 98.0352 240.586C97.2539 240.781 96.375 240.684 95.3984 240.293C94.6172 240.098 93.7383 239.902 92.7617 239.707C90.6133 240.293 88.3672 240.586 86.0234 240.586C83.875 240.586 81.7266 240.586 79.5781 240.586C78.9922 240.586 78.4062 240.684 77.8203 240.879C77.2344 241.074 76.7461 241.172 76.3555 241.172C74.793 241.172 73.3281 240.879 71.9609 240.293C70.5938 239.902 69.1289 239.707 67.5664 239.707C65.0273 239.512 62.4883 239.512 59.9492 239.707C57.4102 239.707 54.7734 239.414 52.0391 238.828C50.6719 239.219 49.4023 239.316 48.2305 239.121C47.0586 238.73 45.7891 238.633 44.4219 238.828C42.4688 239.023 40.8086 239.414 39.4414 240C38.2695 240.391 36.6094 240.391 34.4609 240C33.875 239.805 33.2891 239.609 32.7031 239.414C32.1172 239.023 31.5312 238.73 30.9453 238.535C30.1641 238.34 29.3828 238.34 28.6016 238.535C28.0156 238.535 27.5273 238.438 27.1367 238.242C24.5977 237.461 22.7422 236.973 21.5703 236.777C20.5938 236.582 19.8125 235.703 19.2266 234.141C18.25 234.336 17.4688 234.238 16.8828 233.848C16.4922 233.262 15.9062 232.871 15.125 232.676C13.5625 230.527 11.707 228.477 9.55859 226.523C7.60547 224.57 5.84766 222.324 4.28516 219.785C4.67578 218.809 4.57812 217.734 3.99219 216.562C3.60156 215.391 3.40625 214.316 3.40625 213.34C3.60156 211.973 4.1875 210.605 5.16406 209.238C6.33594 207.871 7.3125 206.504 8.09375 205.137C8.67969 203.574 9.16797 202.109 9.55859 200.742C10.1445 199.18 10.2422 197.422 9.85156 195.469C9.65625 194.688 9.46094 193.711 9.26562 192.539C9.07031 191.367 8.77734 190.391 8.38672 189.609C7.80078 188.242 7.21484 187.168 6.62891 186.387C6.23828 185.41 6.23828 184.434 6.62891 183.457C7.99609 181.504 8.67969 180.332 8.67969 179.941C8.875 179.355 9.07031 178.867 9.26562 178.477C10.4375 176.914 12.0977 175.156 14.2461 173.203C16.5898 171.055 18.6406 169.492 20.3984 168.516C21.1797 167.93 21.9609 167.539 22.7422 167.344C23.5234 167.148 24.3047 166.855 25.0859 166.465C26.2578 167.051 27.1367 167.246 27.7227 167.051C28.3086 166.66 28.7969 166.074 29.1875 165.293C29.7734 164.512 30.2617 163.633 30.6523 162.656C31.043 161.68 31.5312 160.801 32.1172 160.02C33.0938 158.457 34.0703 157.48 35.0469 157.09C36.0234 156.504 37 155.82 37.9766 155.039C38.5625 154.062 39.0508 153.281 39.4414 152.695C40.0273 152.109 40.5156 151.523 40.9062 150.938C41.8828 150.547 42.7617 150.352 43.543 150.352C44.5195 150.156 45.3984 149.766 46.1797 149.18C46.5703 148.789 46.9609 148.398 47.3516 148.008C47.7422 147.422 48.1328 146.934 48.5234 146.543C49.5 145.762 50.4766 145.273 51.4531 145.078C52.4297 144.688 53.4062 144.102 54.3828 143.32C56.9219 141.562 58.6797 140.098 59.6562 138.926C60.6328 137.754 61.8047 137.168 63.1719 137.168C63.7578 136.973 64.3438 137.07 64.9297 137.461C65.5156 137.852 66.1016 138.047 66.6875 138.047C67.2734 138.047 68.1523 137.852 69.3242 137.461C70.4961 136.875 71.2773 136.387 71.668 135.996C72.4492 135.41 73.1328 134.629 73.7188 133.652C74.3047 132.676 74.8906 131.699 75.4766 130.723C76.0625 129.941 76.7461 129.062 77.5273 128.086C78.3086 127.109 78.7969 126.23 78.9922 125.449C79.3828 124.668 79.4805 123.789 79.2852 122.812C79.0898 121.836 79.1875 120.957 79.5781 120.176C79.9688 119.59 80.457 119.297 81.043 119.297C81.6289 119.297 82.1172 119.102 82.5078 118.711C83.2891 118.32 83.875 117.832 84.2656 117.246C84.8516 116.465 85.4375 115.879 86.0234 115.488C87 114.707 87.8789 114.121 88.6602 113.73C89.4414 113.34 90.3203 112.754 91.2969 111.973C94.0312 109.824 96.5703 107.676 98.9141 105.527C101.453 103.184 103.992 100.938 106.531 98.7891C107.508 96.6406 108.387 94.5898 109.168 92.6367C110.145 90.6836 110.73 88.2422 110.926 85.3125C110.926 83.9453 111.023 82.6758 111.219 81.5039C111.414 80.332 111.512 79.2578 111.512 78.2812C111.316 77.6953 111.121 77.0117 110.926 76.2305C110.73 75.2539 110.535 74.375 110.34 73.5938C109.949 71.4453 109.559 69.7852 109.168 68.6133C108.973 67.2461 108.484 65.7812 107.703 64.2188C107.312 63.4375 106.922 62.7539 106.531 62.168C106.141 61.3867 105.945 60.8008 105.945 60.4102C105.75 59.6289 105.75 58.9453 105.945 58.3594C106.336 57.5781 106.629 56.8945 106.824 56.3086C107.215 55.7227 107.41 55.1367 107.41 54.5508C107.41 53.7695 107.117 53.0859 106.531 52.5C104.578 52.3047 103.113 52.5 102.137 53.0859C101.355 53.6719 100.574 54.4531 99.793 55.4297C95.8867 55.0391 92.3711 55.332 89.2461 56.3086C86.1211 57.0898 83.1914 58.1641 80.457 59.5312C74.207 63.4375 68.1523 67.5391 62.293 71.8359C56.4336 76.1328 50.1836 79.9414 43.543 83.2617C41.9805 84.8242 40.2227 86.1914 38.2695 87.3633C36.5117 88.3398 34.8516 89.4141 33.2891 90.5859C32.1172 90.3906 30.9453 90.5859 29.7734 91.1719C26.4531 90.7812 23.8164 89.8047 21.8633 88.2422C19.9102 86.4844 18.1523 84.4336 16.5898 82.0898C16.1992 81.3086 15.7109 80.625 15.125 80.0391C14.7344 79.4531 14.3438 78.8672 13.9531 78.2812C13.5625 77.5 13.2695 76.8164 13.0742 76.2305C12.8789 75.4492 12.5859 74.668 12.1953 73.8867C11.4141 72.7148 10.7305 71.4453 10.1445 70.0781C9.55859 68.7109 9.46094 66.9531 9.85156 64.8047C10.0469 62.8516 10.6328 61.0938 11.6094 59.5312C12.7812 57.7734 13.7578 56.1133 14.5391 54.5508C15.5156 51.8164 16.2969 50.2539 16.8828 49.8633C17.6641 49.2773 18.543 48.6914 19.5195 48.1055C20.3008 47.1289 20.8867 46.1523 21.2773 45.1758C21.8633 44.1992 22.6445 43.3203 23.6211 42.5391C24.0117 42.1484 24.5 41.8555 25.0859 41.6602C25.6719 41.2695 26.1602 40.8789 26.5508 40.4883C27.5273 39.707 28.4062 38.9258 29.1875 38.1445C30.1641 37.3633 31.2383 36.582 32.4102 35.8008C32.9961 35.4102 33.4844 35.0195 33.875 34.6289C34.2656 34.043 34.6562 33.5547 35.0469 33.1641C35.6328 32.7734 36.2188 32.5781 36.8047 32.5781C37.5859 32.3828 38.2695 32.0898 38.8555 31.6992C39.4414 31.1133 40.0273 30.5273 40.6133 29.9414C41.3945 29.3555 42.0781 29.1602 42.6641 29.3555C43.4453 29.3555 44.0312 29.6484 44.4219 30.2344C44.8125 30.625 45.2031 30.918 45.5938 31.1133C48.9141 31.3086 51.0625 31.3086 52.0391 31.1133C53.0156 30.7227 54.1875 30.0391 55.5547 29.0625C56.3359 28.6719 57.1172 28.1836 57.8984 27.5977C58.6797 27.0117 59.2656 26.4258 59.6562 25.8398C60.6328 22.5195 61.6094 20.4687 62.5859 19.6875C63.5625 18.9063 64.3438 17.9297 64.9297 16.7578C68.8359 15.7812 72.8398 15 76.9414 14.4141C81.043 13.6328 85.1445 13.4375 89.2461 13.8281C90.8086 14.0234 92.3711 14.1211 93.9336 14.1211C95.4961 13.9258 97.0586 13.9258 98.6211 14.1211C99.5977 14.1211 100.379 14.3164 100.965 14.707C101.746 14.9023 102.527 15.0977 103.309 15.293C104.676 15.4883 105.848 15.5859 106.824 15.5859C107.996 15.3906 109.07 15.3906 110.047 15.5859C111.023 15.7812 112 16.0742 112.977 16.4648C113.953 16.6602 114.93 16.9531 115.906 17.3438C117.273 17.5391 118.543 17.6367 119.715 17.6367C120.887 17.4414 122.059 17.5391 123.23 17.9297C125.574 18.3203 127.918 19.0039 130.262 19.9805C132.605 20.7617 134.754 21.6406 136.707 22.6172C139.051 23.0078 141.004 23.7891 142.566 24.9609C144.324 25.9375 146.277 26.7188 148.426 27.3047C149.207 28.2813 150.184 29.0625 151.355 29.6484C152.723 30.0391 153.895 30.625 154.871 31.4062C155.652 31.7969 156.238 32.2852 156.629 32.8711C157.02 33.2617 157.508 33.75 158.094 34.3359C160.633 35.7031 162.195 36.7773 162.781 37.5586C163.367 38.3398 164.148 38.7305 165.125 38.7305C167.273 40.8789 169.324 43.0273 171.277 45.1758C173.426 47.1289 175.086 49.4727 176.258 52.207C177.625 53.5742 178.504 54.5508 178.895 55.1367C179.48 55.7227 179.969 56.5039 180.359 57.4805C180.75 57.8711 180.945 58.3594 180.945 58.9453C181.141 59.5312 181.434 60.0195 181.824 60.4102C182.996 62.168 184.266 64.4141 185.633 67.1484C186.023 68.3203 186.316 69.8828 186.512 71.8359C186.902 73.7891 187.293 75.6445 187.684 77.4023C187.879 79.5508 188.074 81.6992 188.27 83.8477C188.465 85.9961 188.562 88.0469 188.562 90C188.367 95.6641 187.684 101.23 186.512 106.699C185.535 111.973 183.777 116.367 181.238 119.883C179.09 124.766 176.551 129.062 173.621 132.773C170.691 136.289 167.566 139.707 164.246 143.027C162.488 145.371 161.316 146.836 160.73 147.422C160.34 148.008 159.852 148.594 159.266 149.18C158.289 149.375 157.215 150.059 156.043 151.23C155.262 151.23 154.578 151.133 153.992 150.938C153.406 150.742 152.82 150.645 152.234 150.645C150.477 151.621 149.402 152.109 149.012 152.109C148.621 152.109 148.23 152.207 147.84 152.402C146.863 152.793 146.082 153.477 145.496 154.453C144.91 155.234 144.324 155.918 143.738 156.504C142.176 161.191 139.93 164.414 137 166.172C134.266 167.734 131.531 169.59 128.797 171.738C128.406 172.129 128.016 172.617 127.625 173.203C127.234 173.594 126.844 173.984 126.453 174.375C125.477 175.156 124.5 175.84 123.523 176.426C122.547 176.816 121.766 177.5 121.18 178.477C120.398 178.477 119.812 178.867 119.422 179.648C119.031 180.234 118.445 180.723 117.664 181.113C116.688 181.504 115.711 181.895 114.734 182.285C113.953 182.676 113.074 183.066 112.098 183.457C111.316 184.043 110.633 184.727 110.047 185.508C109.461 186.094 108.777 186.582 107.996 186.973C107.605 188.34 106.922 189.414 105.945 190.195C105.164 190.781 104.383 191.562 103.602 192.539C104.969 194.297 106.238 194.98 107.41 194.59C108.582 194.199 109.852 194.102 111.219 194.297C113.562 194.688 115.027 194.883 115.613 194.883C116.199 194.688 116.785 194.59 117.371 194.59C119.324 194.98 120.691 195.176 121.473 195.176C122.449 195.176 123.328 195.078 124.109 194.883C124.891 194.688 125.672 194.59 126.453 194.59C127.43 194.59 128.309 194.688 129.09 194.883C130.066 195.078 131.043 195.176 132.02 195.176C133.191 195.176 134.363 195.078 135.535 194.883C136.707 194.492 137.781 194.395 138.758 194.59C142.273 194.98 145.008 194.98 146.961 194.59C148.914 194.199 150.281 194.199 151.062 194.59C151.648 194.98 152.039 195.566 152.234 196.348C152.43 197.129 152.723 197.715 153.113 198.105C155.848 199.082 158.484 200.059 161.023 201.035C163.758 202.012 166.688 202.012 169.812 201.035C170.398 200.645 170.887 200.254 171.277 199.863C171.668 199.473 172.156 199.18 172.742 198.984C175.477 198.203 178.113 197.91 180.652 198.105C183.191 198.105 185.535 198.301 187.684 198.691C189.246 200.254 190.125 202.305 190.32 204.844C190.711 207.383 190.711 210.215 190.32 213.34C190.125 214.316 189.93 215.195 189.734 215.977C189.539 216.758 189.441 217.539 189.441 218.32C189.051 220.664 188.953 223.105 189.148 225.645C189.344 228.184 189.051 230.332 188.27 232.09C187.488 233.262 186.707 234.238 185.926 235.02C185.145 235.996 184.559 236.777 184.168 237.363C183.777 237.949 183.094 238.633 182.117 239.414ZM165.125 104.648C163.758 106.602 162.586 108.848 161.609 111.387C160.633 113.926 159.656 116.562 158.68 119.297C159.07 122.227 160.047 124.082 161.609 124.863C163.172 123.691 164.637 121.836 166.004 119.297C166.785 118.32 167.273 117.246 167.469 116.074C167.859 114.707 168.445 113.438 169.227 112.266C169.812 110.117 170.594 108.262 171.57 106.699C172.547 105.137 173.328 103.672 173.914 102.305C174.305 101.328 174.598 100.254 174.793 99.082C174.988 97.7148 174.988 96.543 174.793 95.5664C174.402 93.8086 173.133 92.6367 170.984 92.0508C168.836 91.2695 167.371 91.9531 166.59 94.1016C166.004 95.8594 165.809 97.7148 166.004 99.668C166.199 101.621 165.906 103.281 165.125 104.648ZM33.875 77.6953C35.0469 76.7188 36.3164 75.8398 37.6836 75.0586C39.2461 74.2773 40.6133 73.3984 41.7852 72.4219C43.1523 71.4453 44.3242 70.3711 45.3008 69.1992C46.2773 67.832 46.8633 66.0742 47.0586 63.9258C44.9102 62.9492 43.0547 63.0469 41.4922 64.2188C39.9297 65.1953 38.3672 65.6836 36.8047 65.6836C35.6328 65.6836 34.6562 65.3906 33.875 64.8047C33.2891 64.0234 32.5078 63.4375 31.5312 63.0469C29.9688 62.6562 28.6016 63.0469 27.4297 64.2188C26.2578 65.1953 25.5742 66.1719 25.3789 67.1484C25.1836 68.125 25.2812 69.1992 25.6719 70.3711C26.0625 71.543 26.4531 72.5195 26.8438 73.3008C27.4297 74.4727 28.5039 75.3516 30.0664 75.9375C31.6289 76.5234 32.8984 77.1094 33.875 77.6953ZM56.7266 62.168C58.2891 61.9727 59.6562 61.3867 60.8281 60.4102C62.1953 59.4336 62.5859 57.9688 62 56.0156C59.8516 55.2344 58.2891 55.7227 57.3125 57.4805C56.5312 59.043 56.3359 60.6055 56.7266 62.168ZM20.9844 218.027C21.9609 217.441 22.6445 216.465 23.0352 215.098C23.4258 213.535 22.9375 212.461 21.5703 211.875C18.4453 212.461 16.4922 213.73 15.7109 215.684C14.9297 217.637 15.2227 218.809 16.5898 219.199C17.1758 219.395 17.957 219.297 18.9336 218.906C19.9102 218.516 20.5938 218.223 20.9844 218.027ZM22.7422 201.328C24.5 201.523 25.8672 201.133 26.8438 200.156C28.0156 199.18 28.8945 197.91 29.4805 196.348C30.0664 194.785 30.457 193.125 30.6523 191.367C30.8477 189.414 30.9453 187.559 30.9453 185.801C30.9453 182.48 30.0664 180.332 28.3086 179.355C25.7695 180.137 23.9141 180.625 22.7422 180.82C21.7656 180.82 21.082 181.309 20.6914 182.285C20.8867 183.262 20.8867 184.043 20.6914 184.629C20.4961 185.215 20.3984 185.898 20.3984 186.68C20.5938 188.242 21.082 189.707 21.8633 191.074C22.6445 192.441 23.1328 193.906 23.3281 195.469C23.3281 196.641 23.1328 197.715 22.7422 198.691C22.5469 199.473 22.5469 200.352 22.7422 201.328ZM163.66 234.727C164.832 234.922 166.199 235.02 167.762 235.02C169.324 234.824 170.496 234.531 171.277 234.141C172.84 233.164 174.109 231.406 175.086 228.867C176.062 226.328 175.867 224.18 174.5 222.422C173.328 222.812 172.254 223.301 171.277 223.887C170.496 224.473 169.715 225.156 168.934 225.938C168.152 226.523 167.273 227.109 166.297 227.695C165.32 228.086 164.148 228.281 162.781 228.281C161.609 228.086 160.535 227.988 159.559 227.988C158.582 227.988 157.508 228.281 156.336 228.867C155.945 230.039 155.945 231.211 156.336 232.383C159.461 233.75 161.902 234.531 163.66 234.727ZM198.816 92.6367C198.035 92.6367 197.449 92.1484 197.059 91.1719C196.668 90 196.473 88.8281 196.473 87.6562C196.473 86.4844 196.57 85.4102 196.766 84.4336C197.156 83.457 197.645 82.8711 198.23 82.6758C199.207 82.4805 199.988 82.8711 200.574 83.8477C201.355 84.8242 201.746 85.9961 201.746 87.3633C201.941 88.7305 201.746 90 201.16 91.1719C200.77 92.1484 199.988 92.6367 198.816 92.6367ZM60.2422 84.7266C59.8516 86.0938 58.875 87.168 57.3125 87.9492C55.9453 88.5352 54.4805 88.8281 52.918 88.8281C51.3555 87.0703 51.3555 85.5078 52.918 84.1406C54.6758 82.5781 56.3359 81.6016 57.8984 81.2109C58.6797 81.0156 59.2656 81.3086 59.6562 82.0898C60.0469 82.8711 60.2422 83.75 60.2422 84.7266ZM20.9844 102.305C20.5938 101.914 20.2031 101.426 19.8125 100.84C19.6172 100.059 19.3242 99.375 18.9336 98.7891C17.3711 97.6172 16.5898 96.25 16.5898 94.6875C18.7383 93.125 19.9102 92.832 20.1055 93.8086C20.3008 94.5898 20.7891 95.1758 21.5703 95.5664C22.3516 95.957 23.2305 96.25 24.207 96.4453C25.3789 96.6406 26.4531 96.9336 27.4297 97.3242C28.6016 96.3477 29.8711 96.0547 31.2383 96.4453C32.8008 96.6406 34.2656 96.3477 35.6328 95.5664C36.2188 95.1758 37.1953 94.6875 38.5625 94.1016C39.9297 93.3203 40.9062 92.7344 41.4922 92.3438C42.0781 91.9531 42.7617 91.3672 43.543 90.5859C44.5195 89.6094 45.3984 89.0234 46.1797 88.8281C47.1562 88.4375 48.2305 88.7305 49.4023 89.707C50.5742 90.4883 50.9648 91.3672 50.5742 92.3438C50.1836 93.3203 49.3047 94.1016 47.9375 94.6875C46.7656 95.0781 45.6914 95.7617 44.7148 96.7383C44.3242 97.1289 43.7383 97.7148 42.957 98.4961C42.1758 99.082 41.3945 99.668 40.6133 100.254C39.832 100.645 38.9531 100.938 37.9766 101.133C37.1953 101.328 36.4141 101.621 35.6328 102.012C34.6562 102.402 33.875 102.891 33.2891 103.477C32.7031 103.867 32.1172 104.16 31.5312 104.355C30.75 104.551 30.0664 104.551 29.4805 104.355C28.8945 104.16 28.2109 104.062 27.4297 104.062C26.0625 103.867 24.8906 103.77 23.9141 103.77C22.9375 103.77 21.9609 103.281 20.9844 102.305ZM185.633 125.156C187 123.594 187.977 122.031 188.562 120.469C189.539 119.297 190.418 118.027 191.199 116.66C192.176 115.098 192.957 113.535 193.543 111.973C193.934 110.605 194.031 109.238 193.836 107.871C193.641 106.309 193.738 104.648 194.129 102.891C194.324 101.523 194.715 100.156 195.301 98.7891C195.887 97.4219 196.961 97.0312 198.523 97.6172C198.914 98.9844 199.402 100.352 199.988 101.719C200.77 102.891 201.062 104.258 200.867 105.82C200.867 106.797 200.77 107.969 200.574 109.336C200.379 110.703 200.086 111.875 199.695 112.852C198.719 116.367 197.449 119.883 195.887 123.398C194.52 126.914 193.055 129.844 191.492 132.188C190.32 132.969 189.246 133.945 188.27 135.117C187.488 136.289 186.512 137.363 185.34 138.34C184.363 139.121 183.191 139.805 181.824 140.391C180.457 140.781 178.797 140.684 176.844 140.098C176.453 138.535 176.746 137.363 177.723 136.582C178.895 135.605 179.773 134.531 180.359 133.359C180.945 132.773 181.336 132.09 181.531 131.309C181.922 130.527 182.41 129.844 182.996 129.258C183.387 128.672 183.68 128.184 183.875 127.793C184.266 127.402 184.656 126.914 185.047 126.328L185.633 125.156ZM198.816 240.293C198.816 243.223 198.035 245.078 196.473 245.859C197.449 247.422 197.449 248.594 196.473 249.375C195.691 250.156 195.105 251.035 194.715 252.012C192.371 252.598 189.93 252.695 187.391 252.305C185.047 252.109 182.508 252.109 179.773 252.305C178.211 252.305 176.551 252.402 174.793 252.598C173.035 252.988 171.375 252.988 169.812 252.598C169.617 251.621 169.812 250.84 170.398 250.254C170.984 249.863 171.766 249.57 172.742 249.375C173.719 249.375 174.695 249.375 175.672 249.375C176.844 249.375 177.82 249.277 178.602 249.082C179.773 248.887 180.75 248.594 181.531 248.203C182.312 247.812 183.094 247.617 183.875 247.617C184.266 247.227 184.559 246.641 184.754 245.859C185.145 245.273 185.145 244.59 184.754 243.809C185.535 242.832 186.121 241.855 186.512 240.879C186.902 239.902 187.586 238.926 188.562 237.949C189.344 236.973 190.418 235.996 191.785 235.02C193.348 233.848 194.227 232.773 194.422 231.797C194.812 229.648 195.008 227.305 195.008 224.766C195.203 222.227 195.691 219.98 196.473 218.027C198.426 221.152 199.305 224.766 199.109 228.867C198.914 232.969 198.816 236.777 198.816 240.293ZM7.80078 232.969C8.77734 233.164 9.36328 233.945 9.55859 235.312C9.75391 236.484 10.4375 237.266 11.6094 237.656C12 238.438 12.0977 239.219 11.9023 240C11.707 240.586 11.1211 241.074 10.1445 241.465C9.55859 241.66 8.97266 241.66 8.38672 241.465C7.99609 241.27 7.50781 241.172 6.92188 241.172C3.99219 241.172 2.33203 240.879 1.94141 240.293C1.55078 239.707 1.16016 239.219 0.769531 238.828C0.378906 237.656 0.28125 236.387 0.476562 235.02C0.671875 233.457 0.964844 232.285 1.35547 231.504C1.94141 230.527 2.625 230.039 3.40625 230.039C4.1875 229.844 5.06641 230.43 6.04297 231.797L7.80078 232.969ZM368.152 14.707C368.543 13.3398 368.543 12.4609 368.152 12.0703C367.957 11.4844 367.859 10.7031 367.859 9.72656C369.617 8.75 370.789 8.45703 371.375 8.84766C371.961 9.04297 372.645 9.14062 373.426 9.14062C374.402 9.92187 375.477 10.3125 376.648 10.3125C377.82 10.1172 378.992 10.1172 380.164 10.3125C381.727 10.7031 383.094 11.1914 384.266 11.7773C385.438 12.168 386.609 12.5586 387.781 12.9492C388.562 13.1445 389.246 13.2422 389.832 13.2422C390.613 13.0469 391.297 13.1445 391.883 13.5352C394.422 14.707 395.887 15.3906 396.277 15.5859C397.449 16.3672 398.523 17.3438 399.5 18.5156C400.672 19.6875 401.941 20.7617 403.309 21.7383C406.043 25.0586 407.801 28.8672 408.582 33.1641C405.848 33.5547 403.895 32.9688 402.723 31.4062C401.551 29.8437 400.281 28.3789 398.914 27.0117C397.352 25.0586 395.398 23.4961 393.055 22.3242C390.906 20.957 388.562 19.6875 386.023 18.5156C385.242 18.5156 384.461 18.5156 383.68 18.5156C382.898 18.5156 382.02 18.418 381.043 18.2227C379.871 18.0273 378.797 17.7344 377.82 17.3438C377.039 16.9531 376.16 16.6602 375.184 16.4648C373.816 16.2695 372.547 16.1719 371.375 16.1719C370.203 16.1719 369.129 15.6836 368.152 14.707ZM429.09 138.047C429.285 139.414 429.285 140.879 429.09 142.441C429.09 144.004 429.09 145.566 429.09 147.129C429.09 149.277 429.09 151.523 429.09 153.867C429.09 156.016 428.992 158.457 428.797 161.191C428.602 163.926 428.602 166.562 428.797 169.102C428.992 171.641 428.895 174.18 428.504 176.719C427.332 179.844 426.648 182.383 426.453 184.336C426.453 186.094 426.258 187.754 425.867 189.316C425.477 190.293 425.086 191.27 424.695 192.246C424.305 193.027 424.109 193.906 424.109 194.883C422.547 196.836 421.375 198.887 420.594 201.035C419.812 203.184 418.641 205.332 417.078 207.48C416.102 208.848 415.027 210.117 413.855 211.289C412.879 212.461 411.805 213.633 410.633 214.805C409.656 215.781 408.777 216.855 407.996 218.027C407.41 219.004 406.531 219.98 405.359 220.957C404.383 221.934 403.309 222.715 402.137 223.301C401.16 223.887 400.184 224.57 399.207 225.352C396.668 227.109 394.715 228.477 393.348 229.453C392.176 230.43 391.004 231.309 389.832 232.09C389.246 232.48 388.66 232.773 388.074 232.969C387.488 232.969 386.902 233.164 386.316 233.555C385.926 233.945 385.438 234.434 384.852 235.02C384.266 235.41 383.777 235.703 383.387 235.898C381.238 236.484 378.992 236.68 376.648 236.484C374.305 236.289 372.059 236.387 369.91 236.777C367.371 237.363 365.223 238.535 363.465 240.293C361.902 242.246 359.949 243.711 357.605 244.688C356.434 245.078 354.969 245.469 353.211 245.859C351.453 246.25 349.793 246.543 348.23 246.738C346.668 246.738 345.008 246.836 343.25 247.031C341.688 247.227 340.223 247.324 338.855 247.324C337.684 247.324 336.609 247.129 335.633 246.738C334.656 246.543 333.68 246.445 332.703 246.445C331.727 246.055 330.555 245.957 329.188 246.152C328.016 246.543 326.844 246.836 325.672 247.031C324.695 247.031 323.719 246.934 322.742 246.738C321.766 246.543 320.789 246.445 319.812 246.445C318.25 246.445 316.688 246.445 315.125 246.445C313.562 246.445 312 246.25 310.438 245.859C309.07 245.664 307.605 245.566 306.043 245.566C304.676 245.762 303.309 245.664 301.941 245.273C301.16 245.273 300.379 245.176 299.598 244.98C299.012 244.785 298.328 244.59 297.547 244.395C295.789 244.004 294.129 243.711 292.566 243.516C291.199 243.32 289.734 243.027 288.172 242.637C287 242.246 285.73 241.66 284.363 240.879C283.191 240.293 282.02 239.707 280.848 239.121C279.48 238.535 278.211 237.949 277.039 237.363C275.867 236.582 274.793 235.703 273.816 234.727C270.496 233.945 268.152 232.285 266.785 229.746C265.613 227.207 264.344 224.668 262.977 222.129C262.391 221.152 261.609 220.078 260.633 218.906C259.852 217.734 258.973 216.953 257.996 216.562C257.41 216.172 256.824 216.074 256.238 216.27C255.652 216.27 254.969 216.074 254.188 215.684C253.797 215.488 253.309 215.195 252.723 214.805C252.137 214.414 251.551 214.023 250.965 213.633C250.574 213.242 250.086 212.949 249.5 212.754C248.914 212.363 248.426 211.973 248.035 211.582C247.059 210.605 246.277 209.238 245.691 207.48C245.105 205.723 244.422 204.16 243.641 202.793C243.445 202.402 243.152 202.012 242.762 201.621C242.371 201.035 241.98 200.547 241.59 200.156C239.051 194.883 237.488 188.633 236.902 181.406C236.512 178.672 236.316 175.938 236.316 173.203C236.316 170.273 236.219 167.441 236.023 164.707C236.023 164.121 235.926 163.535 235.73 162.949C235.73 162.363 235.73 161.777 235.73 161.191C235.926 158.652 236.609 156.406 237.781 154.453C239.148 152.5 239.734 149.961 239.539 146.836C239.539 145.469 239.148 144.395 238.367 143.613C237.781 142.637 237.293 141.562 236.902 140.391C236.707 139.023 236.707 137.754 236.902 136.582C237.293 135.215 237.488 133.75 237.488 132.188C237.488 131.016 237.293 129.648 236.902 128.086C236.707 126.523 236.707 125.254 236.902 124.277C237.098 123.496 237.391 123.008 237.781 122.812C238.367 122.422 238.855 121.738 239.246 120.762C240.027 119.004 240.125 117.051 239.539 114.902C238.953 112.754 238.172 111.094 237.195 109.922C236.805 109.531 236.121 109.043 235.145 108.457C234.168 107.871 233.582 107.188 233.387 106.406C233.191 106.016 233.191 105.527 233.387 104.941C233.582 104.16 233.68 103.379 233.68 102.598C233.68 102.012 233.582 101.426 233.387 100.84C233.191 100.059 233.094 99.4727 233.094 99.082C233.289 98.1055 233.582 97.2266 233.973 96.4453C234.363 95.6641 234.656 94.7852 234.852 93.8086C235.242 92.832 235.438 91.8555 235.438 90.8789C235.438 89.707 235.633 88.6328 236.023 87.6562C236.414 86.6797 236.609 85.7031 236.609 84.7266C236.805 83.5547 237 82.4805 237.195 81.5039C237.391 81.1133 237.586 80.625 237.781 80.0391C238.172 79.4531 238.562 78.8672 238.953 78.2812C239.148 77.6953 239.344 77.207 239.539 76.8164C239.734 76.2305 239.93 75.6445 240.125 75.0586C240.516 73.8867 240.906 72.6172 241.297 71.25C241.688 69.6875 242.273 68.418 243.055 67.4414C243.445 66.6602 243.934 65.9766 244.52 65.3906C245.105 64.6094 245.594 63.8281 245.984 63.0469C247.938 59.9219 249.891 56.7969 251.844 53.6719C253.797 50.5469 256.043 47.6172 258.582 44.8828C259.168 44.1016 259.656 43.418 260.047 42.832C260.633 42.0508 261.121 41.3672 261.512 40.7812C262.098 40.1953 262.684 39.707 263.27 39.3164C264.051 38.7305 264.734 38.1445 265.32 37.5586C265.906 37.168 266.492 36.6797 267.078 36.0938C267.664 35.3125 268.25 34.6289 268.836 34.043C269.812 33.0664 270.789 32.2852 271.766 31.6992C272.938 31.1133 274.012 30.4297 274.988 29.6484C275.965 28.8672 276.941 28.1836 277.918 27.5977C279.09 26.8164 280.359 26.1328 281.727 25.5469C284.07 24.1797 286.512 23.2031 289.051 22.6172C291.785 21.8359 294.617 20.957 297.547 19.9805C298.133 19.7852 298.621 19.5898 299.012 19.3945C299.598 19.1992 300.184 19.0039 300.77 18.8086C301.355 18.6133 301.941 18.6133 302.527 18.8086C303.309 18.8086 303.992 18.7109 304.578 18.5156C306.141 18.125 307.605 17.7344 308.973 17.3438C310.34 16.9531 311.805 16.7578 313.367 16.7578C316.688 16.3672 319.617 16.0742 322.156 15.8789C324.695 15.4883 327.527 15.293 330.652 15.293C332.996 15.4883 334.363 15.5859 334.754 15.5859C335.145 15.3906 335.535 15.293 335.926 15.293C336.902 15.293 337.977 15.4883 339.148 15.8789C340.516 16.0742 341.688 16.1719 342.664 16.1719C343.445 16.3672 344.227 16.3672 345.008 16.1719C345.789 15.9766 346.473 15.8789 347.059 15.8789C350.184 16.6602 352.723 17.0508 354.676 17.0508C356.824 16.8555 358.387 16.9531 359.363 17.3438C359.949 17.7344 360.34 18.2227 360.535 18.8086C360.73 19.1992 361.023 19.6875 361.414 20.2734C361.805 21.0547 362.293 21.6406 362.879 22.0312C363.66 22.4219 364.246 22.8125 364.637 23.2031C366.59 23.9844 368.445 24.082 370.203 23.4961C372.156 22.9102 374.109 22.7148 376.062 22.9102C379.383 23.1055 382.312 23.8867 384.852 25.2539C387.391 26.6211 390.027 27.8906 392.762 29.0625C393.543 30.0391 394.129 31.0156 394.52 31.9922C395.105 32.9688 395.887 34.043 396.863 35.2148C397.254 35.6055 397.742 35.9961 398.328 36.3867C398.914 36.582 399.5 36.875 400.086 37.2656C401.258 39.0234 401.941 40 402.137 40.1953C402.527 40.3906 402.82 40.6836 403.016 41.0742C403.406 41.6602 403.797 42.3438 404.188 43.125C404.578 43.7109 405.164 44.3945 405.945 45.1758C406.336 45.957 406.824 46.6406 407.41 47.2266C407.996 47.6172 408.484 48.1055 408.875 48.6914C409.266 49.082 409.559 49.668 409.754 50.4492C409.949 51.0352 410.242 51.6211 410.633 52.207C411.219 53.3789 412 54.4531 412.977 55.4297C414.148 56.4062 414.93 57.5781 415.32 58.9453C415.711 59.5312 415.906 60.2148 415.906 60.9961C416.102 61.582 416.297 62.168 416.492 62.7539C417.273 64.1211 417.957 65.3906 418.543 66.5625C419.324 67.7344 420.008 69.1016 420.594 70.6641C420.984 71.6406 421.277 72.5195 421.473 73.3008C421.863 73.8867 422.156 74.5703 422.352 75.3516C422.742 76.3281 422.84 77.4023 422.645 78.5742C422.645 79.5508 422.84 80.5273 423.23 81.5039C423.816 84.8242 424.402 88.1445 424.988 91.4648C425.77 94.7852 426.16 98.2031 426.16 101.719C426.355 102.305 426.355 102.891 426.16 103.477C425.965 104.062 425.965 104.648 426.16 105.234C426.16 107.383 426.355 109.434 426.746 111.387C427.137 113.145 427.527 115 427.918 116.953C428.309 120.078 428.406 123.203 428.211 126.328C428.016 129.258 428.016 132.285 428.211 135.41L429.09 138.047ZM256.238 118.711C257.215 118.125 257.996 117.148 258.582 115.781C259.168 114.414 259.07 113.145 258.289 111.973C255.359 111.582 253.504 112.168 252.723 113.73C251.941 115.098 252.039 116.562 253.016 118.125C254.188 118.516 255.262 118.711 256.238 118.711ZM258.289 84.1406C259.656 81.9922 260.926 79.6484 262.098 77.1094C263.27 74.5703 263.172 71.6406 261.805 68.3203C259.266 67.7344 257.605 68.125 256.824 69.4922C256.043 70.6641 255.359 72.0312 254.773 73.5938C254.188 74.9609 253.602 76.4258 253.016 77.9883C252.43 79.3555 251.844 80.4297 251.258 81.2109C250.867 82.9688 250.379 84.9219 249.793 87.0703C249.207 89.0234 249.305 90.8789 250.086 92.6367C249.5 94.1992 249.5 95.957 250.086 97.9102C250.867 99.8633 252.234 100.645 254.188 100.254C256.336 99.8633 257.215 98.7891 256.824 97.0312C256.629 95.2734 256.336 93.6133 255.945 92.0508C255.555 90.0977 255.652 88.6328 256.238 87.6562C256.824 86.4844 257.508 85.3125 258.289 84.1406ZM305.164 163.535C305.945 162.363 306.238 161.289 306.043 160.312C306.043 159.141 305.945 157.773 305.75 156.211C305.555 154.844 305.359 153.477 305.164 152.109C305.164 150.547 304.969 149.277 304.578 148.301C304.188 147.324 303.699 146.445 303.113 145.664C302.723 144.883 302.527 144.004 302.527 143.027C301.551 142.441 300.867 142.441 300.477 143.027C300.086 143.418 299.793 144.102 299.598 145.078C299.598 146.055 299.598 147.129 299.598 148.301C299.793 149.277 299.891 150.156 299.891 150.938C299.891 151.914 299.695 152.891 299.305 153.867C298.914 154.648 298.719 155.527 298.719 156.504C298.719 158.457 299.012 160.703 299.598 163.242C300.184 165.781 301.062 166.953 302.234 166.758C302.625 166.562 303.113 166.074 303.699 165.293C304.285 164.512 304.773 163.926 305.164 163.535ZM350.867 172.324C351.648 171.152 352.234 170.078 352.625 169.102C353.211 168.125 353.699 167.148 354.09 166.172C353.895 164.219 353.406 162.363 352.625 160.605C352.039 158.652 351.453 156.992 350.867 155.625C350.477 154.648 350.086 153.184 349.695 151.23C348.523 146.348 347.938 141.367 347.938 136.289C347.938 131.211 347.547 125.938 346.766 120.469C346.375 116.953 346.277 113.535 346.473 110.215C346.668 106.895 346.277 103.574 345.301 100.254C345.496 97.3242 345.594 94.1016 345.594 90.5859C345.594 87.0703 345.398 83.75 345.008 80.625C345.008 79.0625 345.008 77.5 345.008 75.9375C345.008 74.375 344.812 73.1055 344.422 72.1289C343.836 70.3711 342.957 68.6133 341.785 66.8555C340.613 64.9023 339.539 63.6328 338.562 63.0469C338.172 62.8516 337 62.5586 335.047 62.168C333.875 61.9727 332.508 61.7773 330.945 61.582C329.383 61.1914 327.82 61.1914 326.258 61.582C324.891 62.168 323.719 62.7539 322.742 63.3398C321.766 63.7305 320.789 64.4141 319.812 65.3906C317.469 67.5391 315.809 69.9805 314.832 72.7148C314.051 75.4492 313.66 78.4766 313.66 81.7969C313.66 83.5547 313.758 85.3125 313.953 87.0703C314.344 88.6328 314.441 90.1953 314.246 91.7578C314.051 94.2969 313.66 95.957 313.074 96.7383C312.488 97.5195 312 98.2031 311.609 98.7891C311.023 99.9609 310.535 101.23 310.145 102.598C309.754 103.77 309.656 105.137 309.852 106.699C310.438 108.457 311.512 110.117 313.074 111.68C314.637 113.242 315.516 115.098 315.711 117.246C315.711 117.637 315.613 118.125 315.418 118.711C315.418 119.297 315.418 119.883 315.418 120.469C315.223 123.008 315.223 125.449 315.418 127.793C315.613 129.941 315.906 132.285 316.297 134.824C316.688 137.559 316.785 140.293 316.59 143.027C316.59 145.566 316.59 148.203 316.59 150.938C316.59 151.914 316.688 152.988 316.883 154.16C317.078 155.332 317.176 156.406 317.176 157.383C317.176 157.969 317.078 158.652 316.883 159.434C316.688 160.02 316.59 160.605 316.59 161.191C316.785 162.363 316.98 163.633 317.176 165C317.566 166.367 317.469 167.539 316.883 168.516C316.688 168.906 316.297 169.297 315.711 169.688C315.125 170.078 314.637 170.469 314.246 170.859C313.66 173.984 313.855 176.23 314.832 177.598C316.004 178.77 316.785 180.332 317.176 182.285C318.348 183.262 318.934 184.434 318.934 185.801C319.129 186.973 319.422 188.242 319.812 189.609C320.203 190 320.594 190.586 320.984 191.367C321.375 191.953 321.766 192.539 322.156 193.125C323.914 196.25 326.941 198.203 331.238 198.984C333.191 198.594 334.852 198.496 336.219 198.691C337.781 198.691 339.246 198.301 340.613 197.52C342.176 196.543 343.445 195.176 344.422 193.418C345.398 191.465 346.082 189.707 346.473 188.145C346.863 186.582 347.059 184.824 347.059 182.871C347.059 180.918 347.254 179.258 347.645 177.891C348.035 176.914 348.523 175.938 349.109 174.961C349.891 173.984 350.477 173.105 350.867 172.324ZM400.086 209.824C403.016 207.09 405.457 204.062 407.41 200.742C409.559 197.422 411.023 193.613 411.805 189.316C411.219 188.926 410.73 188.535 410.34 188.145C409.949 187.754 409.461 187.461 408.875 187.266C407.312 187.07 406.336 187.559 405.945 188.73C405.555 189.707 404.676 190.293 403.309 190.488C401.551 193.027 400.379 194.785 399.793 195.762C399.402 196.738 398.816 197.715 398.035 198.691C397.059 199.668 396.18 200.449 395.398 201.035C394.617 201.621 393.738 202.402 392.762 203.379C392.762 206.113 393.055 208.066 393.641 209.238C394.422 210.215 395.301 210.703 396.277 210.703C397.059 210.703 397.645 210.41 398.035 209.824C398.426 209.043 399.109 209.043 400.086 209.824ZM416.199 174.961C416.199 174.18 416.199 173.105 416.199 171.738C416.199 170.371 416.102 169.102 415.906 167.93C415.906 166.758 415.711 165.781 415.32 165C414.93 164.023 414.344 163.535 413.562 163.535C411.219 165.684 409.363 168.027 407.996 170.566C407.801 171.934 407.996 173.203 408.582 174.375C409.168 175.352 409.852 176.133 410.633 176.719C411.609 177.305 412.586 177.5 413.562 177.305C414.734 176.914 415.613 176.133 416.199 174.961ZM417.078 48.1055C416.492 48.3008 415.613 48.0078 414.441 47.2266C413.465 46.4453 412.781 45.5664 412.391 44.5898C411.414 42.6367 411.316 40.6836 412.098 38.7305C413.074 36.7773 414.441 36.7773 416.199 38.7305C416.199 39.3164 416.395 40.0977 416.785 41.0742C417.371 42.0508 417.762 43.0273 417.957 44.0039C418.348 44.9805 418.543 45.8594 418.543 46.6406C418.543 47.4219 418.055 47.9102 417.078 48.1055ZM334.168 69.1992C335.73 69.9805 336.902 71.543 337.684 73.8867C338.465 76.0352 338.953 78.2812 339.148 80.625C339.148 82.1875 338.953 83.8477 338.562 85.6055C338.367 87.3633 338.27 89.0234 338.27 90.5859C338.465 91.5625 338.66 93.2227 338.855 95.5664C339.051 97.9102 338.66 99.2773 337.684 99.668C336.902 100.059 336.121 99.668 335.34 98.4961C334.559 97.1289 333.973 95.957 333.582 94.9805C332.605 92.832 332.117 90.5859 332.117 88.2422C332.312 85.7031 332.605 83.2617 332.996 80.918C333.191 79.5508 333.289 78.1836 333.289 76.8164C333.484 75.2539 332.996 73.9844 331.824 73.0078C329.871 72.6172 328.406 72.6172 327.43 73.0078C326.258 73.5938 325.477 74.4727 325.086 75.6445C324.695 76.6211 324.109 77.207 323.328 77.4023C321.961 77.5977 321.18 76.9141 320.984 75.3516C320.984 73.7891 321.375 72.5195 322.156 71.543C323.914 70.3711 325.867 69.4922 328.016 68.9062C330.164 68.125 332.215 68.2227 334.168 69.1992ZM337.098 104.941C337.879 104.941 338.465 105.332 338.855 106.113C339.246 106.895 339.441 107.871 339.441 109.043C339.441 110.215 339.344 111.387 339.148 112.559C338.953 113.535 338.66 114.316 338.27 114.902C337.293 115.098 336.414 114.707 335.633 113.73C335.047 112.754 334.656 111.582 334.461 110.215C334.461 108.848 334.656 107.676 335.047 106.699C335.438 105.527 336.121 104.941 337.098 104.941ZM226.941 126.621C225.184 124.473 224.109 122.617 223.719 121.055C223.523 119.492 223.328 117.93 223.133 116.367C222.938 114.609 223.23 112.852 224.012 111.094C224.793 109.141 226.355 108.848 228.699 110.215C229.871 110.801 230.555 111.973 230.75 113.73C231.141 115.293 231.141 116.953 230.75 118.711C230.555 120.469 230.066 122.129 229.285 123.691C228.504 125.254 227.723 126.23 226.941 126.621ZM256.824 230.625C257.801 231.602 258.777 232.578 259.754 233.555C260.73 234.531 261.121 235.898 260.926 237.656C258.777 238.828 257.605 239.316 257.41 239.121C257.41 238.73 257.02 238.73 256.238 239.121C253.504 237.559 250.965 235.508 248.621 232.969C246.473 230.43 244.324 227.988 242.176 225.645C240.223 223.105 238.074 219.883 235.73 215.977C235.34 215 234.949 214.219 234.559 213.633C234.168 213.047 233.777 212.266 233.387 211.289C232.41 209.727 231.434 208.164 230.457 206.602C229.676 204.844 229.09 202.891 228.699 200.742C228.309 198.594 227.527 196.445 226.355 194.297C225.379 192.148 224.891 189.902 224.891 187.559C225.477 183.848 225.672 181.211 225.477 179.648C225.477 177.891 226.453 177.305 228.406 177.891C229.383 183.359 230.555 188.73 231.922 194.004C233.289 199.277 235.242 203.867 237.781 207.773C239.148 208.75 240.418 210.02 241.59 211.582C242.762 213.145 244.031 214.512 245.398 215.684C246.18 216.27 247.059 216.855 248.035 217.441C249.207 218.027 249.988 218.809 250.379 219.785C250.965 222.715 251.746 224.668 252.723 225.645C253.309 226.426 253.895 227.305 254.48 228.281C255.262 229.062 256.043 229.844 256.824 230.625ZM266.785 240.293C268.738 241.27 270.691 242.051 272.645 242.637C274.793 243.418 276.16 244.98 276.746 247.324C276.355 247.91 276.062 248.398 275.867 248.789C275.672 249.375 275.281 249.863 274.695 250.254C272.156 251.23 269.91 250.449 267.957 247.91C266.199 245.566 265.516 243.125 265.906 240.586L266.785 240.293Z" fill="url(#paint0_linear_3_2)"/>
<defs>
<linearGradient id="paint0_linear_3_2" x1="211.5" y1="-75" x2="211.5" y2="231" gradientUnits="userSpaceOnUse">
<stop offset="0.499425" stop-color="#00FF66"/>
<stop offset="0.839282" stop-color="#0F4625"/>
</linearGradient>
</defs>
</svg>
